<svg xmlns="http://www.w3.org/2000/svg" width="97.998" height="20.195" viewBox="0 0 97.998 20.195">
  <path id="logo" d="M-50.093-9.687a10.052,10.052,0,0,1,2.773-7.2,8.946,8.946,0,0,1,6.738-2.92A8.777,8.777,0,0,1-34.9-17.832v-1.562h5V0h-5V-1.562A8.059,8.059,0,0,1-40.307.391,9.707,9.707,0,0,1-44.37-.488a9.371,9.371,0,0,1-3.242-2.383A10.086,10.086,0,0,1-50.093-9.687Zm5.2,0A5.229,5.229,0,0,0-43.442-5.9a4.882,4.882,0,0,0,3.662,1.5,5.668,5.668,0,0,0,2.686-.654,5.549,5.549,0,0,0,2-1.748v-5.8a5.859,5.859,0,0,0-2.08-1.758A5.9,5.9,0,0,0-39.9-15a4.6,4.6,0,0,0-3.6,1.572A5.444,5.444,0,0,0-44.9-9.687ZM-26.3,0V-19.395h5v1.563A8.533,8.533,0,0,1-15.832-19.8a8.693,8.693,0,0,1,3.74.83A8.495,8.495,0,0,1-9.114-16.68,7.836,7.836,0,0,1-7.6-13.887a13.686,13.686,0,0,1,.5,4V0h-5.215V-10.273a5,5,0,0,0-1.152-3.652A3.932,3.932,0,0,0-16.379-15a5.4,5.4,0,0,0-2.783.752,6.4,6.4,0,0,0-1.943,1.65V0ZM-4.189-4.609A9.989,9.989,0,0,1-5.518-9.687,9.985,9.985,0,0,1-4.18-14.775,9.851,9.851,0,0,1-.469-18.447,10.412,10.412,0,0,1,4.795-19.8a10.412,10.412,0,0,1,5.264,1.357,9.851,9.851,0,0,1,3.711,3.672,9.985,9.985,0,0,1,1.338,5.088A9.933,9.933,0,0,1,13.77-4.609,9.8,9.8,0,0,1,10.059-.957,10.471,10.471,0,0,1,4.795.391,10.471,10.471,0,0,1-.469-.957,9.874,9.874,0,0,1-4.189-4.609ZM1.1-13.457A5.307,5.307,0,0,0-.322-9.687a5.286,5.286,0,0,0,1.436,3.77A4.834,4.834,0,0,0,4.795-4.395,4.834,4.834,0,0,0,8.477-5.918a5.286,5.286,0,0,0,1.436-3.77,5.321,5.321,0,0,0-1.436-3.779A4.819,4.819,0,0,0,4.795-15,4.835,4.835,0,0,0,1.1-13.457ZM17.121,0V-19.395h5v1.563A8.533,8.533,0,0,1,27.59-19.8a8.693,8.693,0,0,1,3.74.83,8.495,8.495,0,0,1,2.979,2.295,7.836,7.836,0,0,1,1.514,2.793,13.686,13.686,0,0,1,.5,4V0H31.106V-10.273a5,5,0,0,0-1.152-3.652A3.932,3.932,0,0,0,27.043-15a5.4,5.4,0,0,0-2.783.752,6.4,6.4,0,0,0-1.943,1.65V0ZM41.889-.605a3.408,3.408,0,0,1-1-2.48A3.424,3.424,0,0,1,41.9-5.576,3.326,3.326,0,0,1,44.37-6.6a3.423,3.423,0,0,1,2.5,1.025,3.374,3.374,0,0,1,1.035,2.49A3.311,3.311,0,0,1,46.87-.615,3.457,3.457,0,0,1,44.37.391,3.408,3.408,0,0,1,41.889-.605Z" transform="translate(50.093 19.805)"/>
</svg>
